# xmcd
#
# Track frame offsets: 
#        150
#        16198
#        33552
#        48542
#        59886
#        83378
#        109626
#        126737
#        138515
#        169357
#        178396
#        195763
#        210611
#        226120
#        248209
#        259299
#        271657
#        294607
#
# Disc length: 4280 seconds
#
# Revision: 0
# Processed by: cddbd v1.5.2PL0 Copyright (c) Steve Scherf et al.
# Submitted via: ExactAudioCopyFreeDBPlugin 1.0
#
DISCID=0b10b612
DTITLE=Magic Buck - Bootstompin' the Blues
DYEAR=1998
DGENRE=blues
TTITLE0=Blues for You
TTITLE1=I got a Gal
TTITLE2=Little Red Rooster
TTITLE3=Pretty Poppy
TTITLE4=Damn' Old Blues
TTITLE5=I do Alone
TTITLE6=Lying to You
TTITLE7=White Stud and Black Mare
TTITLE8=Hailstones Blues
TTITLE9=Obsession
TTITLE10=So Blind
TTITLE11=Never Trust your Friends
TTITLE12=Flat Tyre Blues
TTITLE13=I'm your Pane Washer
TTITLE14=Baby Boy Child
TTITLE15=Love in Vain
TTITLE16=Blues must be on their Way
TTITLE17=Shankila Washte
EXTD=
EXTT0=
EXTT1=
EXTT2=
EXTT3=
EXTT4=
EXTT5=
EXTT6=
EXTT7=
EXTT8=
EXTT9=
EXTT10=
EXTT11=
EXTT12=
EXTT13=
EXTT14=
EXTT15=
EXTT16=
EXTT17=
PLAYORDER=
